Coordinates
version=1
nRows=7
nColumns=46
inDegrees=yes

Units are S.I. units (second, meters, Newtons, ...)
Angles are in degrees.

endheader
time	pelvis_tilt	pelvis_list	pelvis_rotation	pelvis_tx	pelvis_ty	pelvis_tz	bb_angle	bb_tx	bb_ty	bb_tz	hip_flexion_r	hip_adduction_r	hip_rotation_r	knee_angle_r	knee_angle_r_beta	ankle_angle_r	subtalar_angle_r	mtp_angle_r	crank_angle_r	hip_flexion_l	hip_adduction_l	hip_rotation_l	knee_angle_l	knee_angle_l_beta	ankle_angle_l	subtalar_angle_l	mtp_angle_l	crank_angle_l	lumbar_extension	lumbar_bending	lumbar_rotation	arm_flex_r	arm_add_r	arm_rot_r	elbow_flex_r	pro_sup_r	wrist_flex_r	wrist_dev_r	arm_flex_l	arm_add_l	arm_rot_l	elbow_flex_l	pro_sup_l	wrist_flex_l	wrist_dev_l
      7.50000000	    -19.32534706	     -3.59725486	      5.92200115	      0.34160814	      1.14443007	     -0.24338761	      0.00000000	      0.50000000	      0.00000000	      0.25000000	     77.71024129	     -1.10813153	     -0.42464318	    111.53332832	      1.94662380	     19.61376184	     -6.61777433	      0.00000000	      0.00000000	     30.38605444	    -12.49814248	     -6.60203103	     35.90832860	      0.62671856	     -7.23393801	     10.48065407	      0.00000000	      0.00000000	    -54.50651247	      4.91728890	     -7.19207293	     57.15278182	    -16.07864785	     45.31953751	     69.56957189	     47.06241426	      0.00000000	      0.00000000	     42.45241851	    -38.81486180	     24.79673855	     79.81005693	     51.37849600	      0.00000000	      0.00000000
      7.50500000	    -19.14297203	     -3.62935084	      5.95155448	      0.33956699	      1.14467109	     -0.24347573	      0.00000000	      0.50000000	      0.00000000	      0.25000000	     77.77313933	     -1.08949649	     -0.49819414	    111.19702191	      1.94075415	     19.40315214	     -7.08070198	      0.00000000	      0.00000000	     30.47359717	    -12.67527318	     -6.71319449	     36.50141647	      0.63706990	     -7.11341596	     10.58375333	      0.00000000	      0.00000000	    -54.49760451	      5.04628990	     -7.50408554	     57.86351476	    -15.44666479	     46.01481587	     68.33611503	     46.97886185	      0.00000000	      0.00000000	     42.47570954	    -39.04823443	     24.59396816	     79.46558816	     51.34129977	      0.00000000	      0.00000000
      7.51000000	    -18.98690470	     -3.61444439	      5.98578829	      0.33754618	      1.14497917	     -0.24370332	      0.00000000	      0.50000000	      0.00000000	      0.25000000	     77.83407753	     -1.16597047	     -0.59657228	    110.86402786	      1.93494231	     19.23343989	     -7.54043632	      0.00000000	      0.00000000	     30.57212682	    -12.81003400	     -6.92882600	     37.03693890	      0.64641653	     -7.10771941	     10.68951522	      0.00000000	      0.00000000	    -54.49928799	      5.07653812	     -7.79391520	     58.33276831	    -15.07355880	     46.38562141	     67.49568244	     46.92495368	      0.00000000	      0.00000000	     42.52906600	    -39.18553016	     24.46126024	     79.35821550	     51.34419494	      0.00000000	      0.00000000
      7.51500000	    -18.83971400	     -3.45734103	      6.03084627	      0.33557069	      1.14535592	     -0.24402091	      0.00000000	      0.50000000	      0.00000000	      0.25000000	     77.87077177	     -1.31242251	     -0.48640875	    110.58971106	      1.93015458	     19.23357971	     -7.62253279	      0.00000000	      0.00000000	     30.62896051	    -12.76169931	     -7.12085068	     37.50084815	      0.65451327	     -7.22933097	     10.69960629	      0.00000000	      0.00000000	    -54.56735651	      5.03019243	     -7.96790143	     58.56760233	    -14.99811453	     46.36610615	     67.43431266	     46.91629279	      0.00000000	      0.00000000	     42.72154914	    -39.15601137	     24.39787321	     79.35059036	     51.33687022	      0.00000000	      0.00000000
      7.52000000	    -18.65425487	     -3.45419903	      6.00339256	      0.33359757	      1.14580250	     -0.24419224	      0.00000000	      0.50000000	      0.00000000	      0.25000000	     77.84252498	     -1.27594426	     -0.53517512	    110.27284186	      1.92462417	     19.02204949	     -8.16788706	      0.00000000	      0.00000000	     30.71731012	    -12.95754621	     -7.37508884	     38.01536536	      0.66349329	     -7.25267595	     10.98895020	      0.00000000	      0.00000000	    -54.58612689	      5.07929890	     -8.15315410	     59.15724578	    -14.51313171	     46.84900324	     66.35001136	     46.83044216	      0.00000000	      0.00000000	     42.98874610	    -39.22455423	     24.38870706	     78.82076524	     51.27806706	      0.00000000	      0.00000000
      7.52500000	    -18.55132488	     -3.33370282	      6.01053416	      0.33168020	      1.14637880	     -0.24461404	      0.00000000	      0.50000000	      0.00000000	      0.25000000	     77.85050757	     -1.38381442	     -0.43782728	    109.96620512	      1.91927235	     19.03519937	     -8.20710639	      0.00000000	      0.00000000	     30.79127258	    -12.90468238	     -7.46798221	     38.29465845	      0.66836788	     -7.39871977	     11.05002942	      0.00000000	      0.00000000	    -54.62162492	      5.08067162	     -8.24812873	     59.28021833	    -14.49435266	     46.83129977	     66.32036844	     46.82493364	      0.00000000	      0.00000000	     43.06889561	    -39.19998545	     24.37316823	     78.81686999	     51.27590059	      0.00000000	      0.00000000
      7.53000000	    -18.41239509	     -3.38880282	      5.99034514	      0.32961027	      1.14664418	     -0.24478375	      0.00000000	      0.50000000	      0.00000000	      0.25000000	     77.87483377	     -1.35196580	     -0.55075106	    109.74796143	      1.91546327	     18.79671953	     -8.70789550	      0.00000000	      0.00000000	     31.06107511	    -13.17960696	     -7.71848955	     38.89359641	      0.67882132	     -7.60139470	     11.49326236	      0.00000000	      0.00000000	    -54.58520089	      5.16476822	     -8.40462171	     59.93363024	    -13.95843986	     47.17794094	     65.11953692	     46.70805011	      0.00000000	      0.00000000	     43.47490766	    -39.27674916	     24.44675316	     78.23112331	     51.21508492	      0.00000000	      0.00000000
